<svg xmlns="http://www.w3.org/2000/svg" viewBox="0 0 9.87 9.49"><title>Asset 4customer-icon</title><g id="Layer_2" data-name="Layer 2"><g id="Layer_1-2" data-name="Layer 1"><path d="M4.41,6.86a2.09,2.09,0,0,0,.86.38,4,4,0,0,0,2,0,4.58,4.58,0,0,0,1.38-.55,1.39,1.39,0,0,1,.89-.19.3.3,0,0,1,.26.46l-.11.16a11.68,11.68,0,0,1-3,2.13,3.74,3.74,0,0,1-1.9.27,19,19,0,0,1-3.35-.63,2.61,2.61,0,0,0-1.36,0L0,8.86H0a.24.24,0,0,1,0-.09V6.22c0-.09,0-.13.12-.16.74-.2,1.48-.43,2.23-.62a4,4,0,0,1,2.22.18c.46.16.92.35,1.37.54a1,1,0,0,1,.34.25.31.31,0,0,1,.06.39A.41.41,0,0,1,6.05,7c-.42,0-.85-.07-1.27-.11l-.35,0Z"/><path d="M4.71,0a2,2,0,1,1-2,2A2,2,0,0,1,4.71,0Z"/><path d="M7.71,6.67l-1,.26V6.78A.73.73,0,0,0,6.47,6,1.75,1.75,0,0,0,6,5.75,7.91,7.91,0,0,0,3.49,5C3.1,5,2.71,5,2.32,5A2.56,2.56,0,0,1,3,3.84a2.56,2.56,0,0,0,3.43,0c.08.1.18.19.26.31a6.69,6.69,0,0,1,.93,2.18C7.66,6.42,7.68,6.53,7.71,6.67Z"/></g></g></svg>