<svg xmlns="http://www.w3.org/2000/svg" viewBox="0 0 8.41 10.53"><defs><style>.cls-1{fill:#ed1c24;}</style></defs><title>Asset 8delete-icon</title><g id="Layer_2" data-name="Layer 2"><g id="Layer_1-2" data-name="Layer 1"><path class="cls-1" d="M6.87,10.53H1.48a.47.47,0,0,1-.36-.42c0-.12,0-.24,0-.36C1.05,9.11,1,8.47,1,7.82s-.1-1.33-.14-2L.71,4.16l0-.59h7c0,.13,0,.25,0,.37,0,.61-.09,1.21-.13,1.82s-.11,1.42-.16,2.12S7.32,9.1,7.28,9.71l0,.32A.47.47,0,0,1,6.87,10.53Zm-4-3.64V9a.3.3,0,0,0,.6,0V4.78A.3.3,0,0,0,3,4.56a.31.31,0,0,0-.14.29ZM5,6.89V9a.29.29,0,0,0,.29.3A.3.3,0,0,0,5.56,9V4.79a.3.3,0,0,0-.33-.27A.28.28,0,0,0,5,4.84Z"/><path class="cls-1" d="M8.41,3H0a5.87,5.87,0,0,1,0-.84.63.63,0,0,1,.62-.51H7.7a.67.67,0,0,1,.68.5,1.42,1.42,0,0,1,0,.35C8.42,2.62,8.41,2.78,8.41,3Z"/><path class="cls-1" d="M6,1H2.46c0-.26,0-.51,0-.76A.27.27,0,0,1,2.71,0H5.59C5.85,0,6,.1,6,.36Z"/></g></g></svg>