<svg xmlns="http://www.w3.org/2000/svg" viewBox="0 0 6.89 9.49"><title>Asset 5location-icon</title><g id="Layer_2" data-name="Layer 2"><g id="Layer_1-2" data-name="Layer 1"><path d="M3.44,8c-.2-.22-.4-.43-.58-.65a12.15,12.15,0,0,1-1.43-2A6.34,6.34,0,0,1,.74,3.67,3,3,0,0,1,.83,1.76,2.76,2.76,0,0,1,3,0,2.81,2.81,0,0,1,6.21,2.28a3.35,3.35,0,0,1-.09,1.54A7.41,7.41,0,0,1,5.2,5.77,14.18,14.18,0,0,1,3.5,7.93ZM5.18,2.79A1.73,1.73,0,1,0,3.45,4.52,1.74,1.74,0,0,0,5.18,2.79Z"/><path d="M2.33,7.35l-.42.09-.65.2A.75.75,0,0,0,1,7.79a.21.21,0,0,0,0,.36,1.78,1.78,0,0,0,.3.17,3.59,3.59,0,0,0,.86.2A8.8,8.8,0,0,0,3.8,8.6a6.41,6.41,0,0,0,1.63-.23,3.27,3.27,0,0,0,.33-.14.22.22,0,0,0,.09-.07.22.22,0,0,0,0-.39,1.71,1.71,0,0,0-.6-.27l-.66-.15,0,0,.2-.25.05,0a4.5,4.5,0,0,1,1.42.44,1.34,1.34,0,0,1,.43.32.55.55,0,0,1,0,.81A1.68,1.68,0,0,1,6.17,9a5,5,0,0,1-1.27.38,8.25,8.25,0,0,1-1.72.11A6.7,6.7,0,0,1,1,9.11a2,2,0,0,1-.78-.45A.66.66,0,0,1,0,8.26a.59.59,0,0,1,.18-.45,1.7,1.7,0,0,1,.64-.42,5.36,5.36,0,0,1,1.23-.34,0,0,0,0,1,.05,0Z"/></g></g></svg>