<svg xmlns="http://www.w3.org/2000/svg" viewBox="0 0 330.23 142.59"><defs><style>.cls-1{fill:#231f20;}.cls-2{fill:#00a651;}.cls-3{fill:#db2f28;}</style></defs><title>2Asset 2DG </title><g id="Layer_2" data-name="Layer 2"><g id="Layer_1-2" data-name="Layer 1"><path class="cls-1" d="M5.6,131.62a4.83,4.83,0,0,1-.45-1.39,3.36,3.36,0,0,1,.93-2.57A3.19,3.19,0,0,1,8,127.17a1.9,1.9,0,0,1,1.64,1,3.27,3.27,0,0,1,.74,2,4.42,4.42,0,0,1-1.06,3,3.29,3.29,0,0,1-2.55,1.22,4.31,4.31,0,0,1-3.09-1.16Q0,129.67,0,123.26a15.76,15.76,0,0,1,3.92-11.07,6.11,6.11,0,0,1,4.48-2.34l2.53,3a8,8,0,0,0-5.41,2.86,13.35,13.35,0,0,0-2.89,8.89,16.12,16.12,0,0,0,.39,3C3.52,129.83,4.38,131.18,5.6,131.62Z"/><path class="cls-1" d="M14.73,112.89c0,.14,0,.32.06.51a2.53,2.53,0,0,1,0,.31.51.51,0,0,0,.18.09,7.34,7.34,0,0,0,4.18,3.2c1.47.57,2.38.93,2.75,1.14a3.54,3.54,0,0,1,1.87,3.34,10.53,10.53,0,0,1-1.5,5.32q-3.46,6-6.71,6a3.06,3.06,0,0,1-2.3-1.56,5,5,0,0,1-1.16-2.94V112.89H9.63l-2.56-3h18l2.65,3Zm5.39,8.85c-.54-.23-1.25-.57-2.11-1a14,14,0,0,1-3.28-3.29V128.3c0,.51.14.79.4.79.85,0,2.12-1.2,3.85-3.57a5.54,5.54,0,0,0,1.17-3.2C20.15,122.12,20.13,121.91,20.12,121.74Z"/><path class="cls-1" d="M30.45,112.89v23.3L27.66,133V112.89H24.82l-2.62-3h5.64a1.67,1.67,0,0,0,.25-.92,1.41,1.41,0,0,0-1.16-1.53,11.46,11.46,0,0,0-2.45-.1c-2.37.06-3.81.06-4.34,0C17,107,15.21,105.55,14.73,103a10,10,0,0,1,.91-3.6c.19-.57.44-.76.74-.57l1.2,1.21a2.1,2.1,0,0,0-.94,1.46,5.15,5.15,0,0,0,.19,1c.15.74.89,1.08,2.23,1.08v.88c-.21,0-.33-.06-.33-.13a.46.46,0,0,1,.17-.31l-.32-.17c.05-.2.3-.31.79-.31q1.26,0,3.75-.18c.7,0,1.22-.07,1.56-.07,4,0,5.93,1.85,5.93,5.51v1h2.9l2.65,3Z"/><path class="cls-1" d="M34.34,115h0a4.18,4.18,0,0,1-1.15-1.34l-.41-.92-2.47-2.86H51l2.65,3.1H48.21V135.8l-1.51-1.92c-.56-2.68-1.25-4.43-2.05-5.2a13,13,0,0,0-2.5-2.21,3.82,3.82,0,0,1-3.32,1.9,3.51,3.51,0,0,1-3.25-2.07,4.36,4.36,0,0,0-.14-1,5.63,5.63,0,0,1-.12-.94,4,4,0,0,1,1.27-3.16,4.18,4.18,0,0,1,2.91-1,2.93,2.93,0,0,1,1,.16,5,5,0,0,0-1.81-3.45,8.92,8.92,0,0,0-2.32-1A7,7,0,0,1,34.34,115Zm11.34-2H38.41A37,37,0,0,1,41,115.61,8.09,8.09,0,0,1,42.72,119a17.3,17.3,0,0,1,.53,4.08c.62.73,1.43,1.84,2.43,3.3Z"/><path class="cls-1" d="M46.83,137.16a21.83,21.83,0,0,1-1.57,1.58,3,3,0,0,1-1.94.75,4.23,4.23,0,0,1-2.42-.71,3.11,3.11,0,0,1-1.42-2.31,3.76,3.76,0,0,1,.9-3.11,3.53,3.53,0,0,1,2.74-1.23,4.62,4.62,0,0,1,2.6,1.06c0-.22,0-.75,0-1.64,0-.39,0-.89,0-1.46.19-.2.33-.3.45-.3.47,0,.92.46,1.36,1.43a6.26,6.26,0,0,1,.64,2.2v.69a6.59,6.59,0,0,0,.06.82,9.05,9.05,0,0,1,1.66,1.77,9.59,9.59,0,0,1,2.74,4.9,1.92,1.92,0,0,1,0,.48q-.18.51-.6.51a.63.63,0,0,1-.52-.34,20,20,0,0,0-4.56-4.88C46.79,137.31,46.78,137.26,46.83,137.16Zm-3.73-2c-.84.07-1.27.31-1.27.74s.24.67.71.67a3,3,0,0,0,1.31-.38c.49-.25.73-.44.71-.59C44.33,135.29,43.85,135.14,43.1,135.17Z"/><path class="cls-1" d="M57.42,113.89a2,2,0,0,0-1.19-1H50.75l-2.73-3H67.46l2.57,3H59.44l.08.26c.09.18.24.43.44.79a3.76,3.76,0,0,1,1.6.47,6.56,6.56,0,0,1,3.78,5.07,7.19,7.19,0,0,1,.1,1.2,6.12,6.12,0,0,1-3,5.48l-2,1.16a12.76,12.76,0,0,1,1.64,1,18.77,18.77,0,0,1,3.33,3l2.94,3.59,1.2,5c-.93-1.29-1.57-2.17-2-2.63a28.21,28.21,0,0,0-6.67-5.85,20.79,20.79,0,0,0-7.24-3.12l-2.61-7.4q3.47,2.73,6.42,2.73a6.63,6.63,0,0,0,5.07-2.47,2.18,2.18,0,0,0,.53-1.45,2.37,2.37,0,0,0-.9-1.88,3.06,3.06,0,0,0-2.09-.75,2.9,2.9,0,0,0-.45,0,5.44,5.44,0,0,1-1.72,3.22,3,3,0,0,1-2.16,1A2.44,2.44,0,0,1,53.21,119a4,4,0,0,1,.85-2.87,5.12,5.12,0,0,1,1.53-1.38Z"/><path class="cls-1" d="M73.83,120.4a4.76,4.76,0,0,1,.93,3,3.18,3.18,0,0,1-.78,2.24,2.76,2.76,0,0,1-2.13.84c-2.63,0-3.93-1.52-3.93-4.56a5.42,5.42,0,0,1,1.43-3.82,4.67,4.67,0,0,1,3.46-1.5c2.41,0,4.47,1.73,6.16,5.18l.22.48v-9.36H66.7l-2.6-3H84.39l2.73,3H81.83v23.49l-1.43-2.26v-.74a18.72,18.72,0,0,0-.71-4.37,24.27,24.27,0,0,0-1.25-4.09A10.12,10.12,0,0,0,76.59,122,4.42,4.42,0,0,0,73.83,120.4Z"/><path class="cls-1" d="M88.53,112.89v22.86l-2.63-3V112.89H83.8l-2.8-3h5.11l-.22-1.12a9.56,9.56,0,0,0-1.52-3.1c-1.61-2.51-4.41-3.78-8.37-3.78a13,13,0,0,0-2.76.35c-1.34.32-2,.77-2,1.33,0,.4.45.64,1.37.67,2.73.1,4.24.2,4.54.24,3,.5,4.61,2.1,4.65,4.82a6.26,6.26,0,0,1-.26,1.73H78.25c1-1,1.57-1.63,1.57-1.95,0-.66-.89-1.05-2.68-1.15-2.11-.13-3.2-.21-3.27-.23a6.7,6.7,0,0,1-2.93-1.28,3.54,3.54,0,0,1-1.46-3.06,3.59,3.59,0,0,1,2.17-3.18,10.35,10.35,0,0,1,5.08-1.39,15,15,0,0,1,4.83,1.07,10.58,10.58,0,0,1,3.19,2.25,12,12,0,0,1,2,2.77,13.9,13.9,0,0,1,1.34,3.26l.42,1.75H91.7l2.59,3Z"/><path class="cls-1" d="M93.68,139.62H90.59l9.66-35.1h3.1Z"/><path class="cls-1" d="M120.72,132.51a6.73,6.73,0,0,1-5.29-2.91,10.33,10.33,0,0,1-2-6.38,8,8,0,0,1,2.4-6,7.41,7.41,0,0,1,5.4-2.25,6.92,6.92,0,0,1,6.46,4,9.65,9.65,0,0,1,1.24,4.83,8.68,8.68,0,0,1-2.52,6.24A7.11,7.11,0,0,1,120.72,132.51Zm1.79-14.4a5.15,5.15,0,0,0-2.9,1,6.18,6.18,0,0,0-2.19,2.42,9.52,9.52,0,0,0-1.17,4,3.67,3.67,0,0,0,.94,2.58,2.91,2.91,0,0,0,2.25,1.06,6.15,6.15,0,0,0,4-1.94,7.06,7.06,0,0,0,2.39-5.28,4.13,4.13,0,0,0-.93-2.83A3.13,3.13,0,0,0,122.51,118.11Z"/><path class="cls-1" d="M140.39,133.8a6.47,6.47,0,0,1-3.54,1.31,3.7,3.7,0,0,1-2.53-1.05,3.25,3.25,0,0,1-1.34-2.58,4.19,4.19,0,0,1,1-2.69,4.84,4.84,0,0,1,2.12-1.58,3.08,3.08,0,0,1,1.27-.22,5.12,5.12,0,0,1,3.74,1.28,4.21,4.21,0,0,0,.83-2.42,4.78,4.78,0,0,0-1.13-2.59,71.13,71.13,0,0,0-5.76-6.82,6,6,0,0,1-2-4,3.25,3.25,0,0,1,1.49-2.83,2.19,2.19,0,0,1,1.18-.38,1.93,1.93,0,0,1,1.7.92,3.76,3.76,0,0,1,.61,2.13c0,.24,0,.45,0,.69l-.2.52a43.05,43.05,0,0,1,4.51,5.73,13.53,13.53,0,0,1,2.35,7.08Q144.69,130.9,140.39,133.8Z"/><path class="cls-1" d="M162.09,134.91c-1.36-.35-2-1.61-2-3.83v-7.33h-5.21a4.87,4.87,0,0,1-3.36-2,6.24,6.24,0,0,1-1.51-4,7.35,7.35,0,0,1,2-4.91,5.79,5.79,0,0,1,4.27-2.38c1.62,0,3.18.89,4.71,2.77a7.61,7.61,0,0,1,2,5.64v11.06c1.43.13,2,1.15,1.81,3.12C164.58,134.47,163.69,135.11,162.09,134.91Zm-2.79-18.46c-.6-1.59-1.22-2.55-1.84-2.87-.65-.14-1.47.27-2.47,1.25a5,5,0,0,0-1.69,2.61,6.65,6.65,0,0,0-.14,1.27c0,.52.12.83.4,1a3.75,3.75,0,0,0,1,.08h5.48v-.13A10,10,0,0,0,159.3,116.45Z"/><path class="cls-1" d="M181.1,131.29a6.32,6.32,0,0,1-4.81,2.05c-2.88-.11-5.45-2.4-7.71-6.9a33.31,33.31,0,0,1-3.36-11.8l2.41,1.19a19.63,19.63,0,0,0,4.09,10.2,5.4,5.4,0,0,0,4.17,2.34,5.61,5.61,0,0,0,5.38-5.79c-.12-2.49-.56-4.17-1.32-5a4.56,4.56,0,0,0-1.75-1.12,4.29,4.29,0,0,1-.08,3.48,3.44,3.44,0,0,1-3.22,2.29,3.2,3.2,0,0,1-2.76-1.65,6.17,6.17,0,0,1-1-3.48,5.62,5.62,0,0,1,.7-2.68,4.43,4.43,0,0,1,1.75-1.89,6.25,6.25,0,0,1,2.43-.64,5.65,5.65,0,0,1,3.93,1.56c2.64,2.1,3.94,5.25,3.94,9.47C183.89,126.58,183,129.38,181.1,131.29Z"/><path class="cls-1" d="M196.38,132.66a35.78,35.78,0,0,0-4.22-2.71,19.22,19.22,0,0,0-4.65-1.63l-1.91-7.64.75-.25c.2.81,1.21,1.66,3,2.52a15,15,0,0,0,4,1.34,3.88,3.88,0,0,0,2.49-.6,2.22,2.22,0,0,0,1.37-1.88,1.56,1.56,0,0,0-.15-.63,7.43,7.43,0,0,0-3.12-3.64c-.62-.36-1.84-1-3.64-2.05a3.29,3.29,0,0,1-2-2.82,5.25,5.25,0,0,1,.46-1.9,2.7,2.7,0,0,1,2-1.06c.18,0,.64.18,1.38.41a2.61,2.61,0,0,1,.94,2,18.45,18.45,0,0,1,4.41,3.33,8,8,0,0,1,2.09,5.47,7.31,7.31,0,0,1-1,4.07,15.05,15.05,0,0,1-2,2,5.3,5.3,0,0,1-1.72.89c.7.57,2,1.66,3.89,3.28A48.44,48.44,0,0,1,202.5,135l.71,4.34A38.57,38.57,0,0,0,196.38,132.66Z"/><path class="cls-1" d="M203.85,126.47v-3.55h9.91v3.55Z"/><path class="cls-1" d="M225.67,134.35a7.11,7.11,0,0,1-5.19-2.69,17.66,17.66,0,0,1-3.32-5.56,44.76,44.76,0,0,1-2-6.84,38.38,38.38,0,0,1-.55-4.41l1.86,1a29.07,29.07,0,0,0,1.42,5.77,30.77,30.77,0,0,0,2.71,5.24,5.52,5.52,0,0,0,5,2.78,4.81,4.81,0,0,0,3-1,4.72,4.72,0,0,0,1.65-2.88,6.21,6.21,0,0,0-.29-3.82,5.27,5.27,0,0,1-4.82,3,3.94,3.94,0,0,1-2.81-1.24,5.22,5.22,0,0,1-1.49-3.09l-.66-5.47a1.89,1.89,0,0,1-1.25-.87,2.89,2.89,0,0,1-.5-1.65,2.38,2.38,0,0,1,.74-1.88,2.27,2.27,0,0,1,1.8-.59c1.74.13,2.6,1.41,2.6,3.81v6.87c0,.59.27.87.79.8a2,2,0,0,0,1.34-.69,12.14,12.14,0,0,0,2.91-5.22,11.08,11.08,0,0,1,4.11,8.79,12.32,12.32,0,0,1-1.79,6.76A6,6,0,0,1,225.67,134.35Z"/><path class="cls-1" d="M248.36,131.3a6.29,6.29,0,0,1-4.8,2c-2.88-.11-5.45-2.4-7.7-6.9a33.11,33.11,0,0,1-3.36-11.8l2.4,1.19A19.71,19.71,0,0,0,239,126a5.44,5.44,0,0,0,4.17,2.35,5.61,5.61,0,0,0,5.38-5.8c-.13-2.49-.56-4.14-1.31-5a4.61,4.61,0,0,0-1.76-1.12,4.4,4.4,0,0,1,.33,1.64,4.26,4.26,0,0,1-.41,1.85,3.44,3.44,0,0,1-3.21,2.28,3.17,3.17,0,0,1-2.76-1.65,6.18,6.18,0,0,1-1-3.48,5.52,5.52,0,0,1,.71-2.68,4.35,4.35,0,0,1,1.74-1.89,6.29,6.29,0,0,1,2.42-.64,5.77,5.77,0,0,1,3.95,1.56q3.93,3.15,3.93,9.47C251.16,126.6,250.24,129.39,248.36,131.3Z"/><path class="cls-1" d="M256.42,113.38c.08.27,1,.69,2.69,1.28a45.48,45.48,0,0,1,4.41,1.64,9.86,9.86,0,0,1,5.62,8.9c.09,2-.82,3.89-2.74,5.84s-3.85,2.84-5.75,2.67c.13-.71.28-1.44.4-2.17a23.21,23.21,0,0,0,.37-3.41,3.76,3.76,0,0,0-.07-.73,5.21,5.21,0,0,0-.75-1.82,4,4,0,0,0-1.19-1.36,4.49,4.49,0,0,0-1.26-.36c-.38-.07-.77.32-1.2,1.21a5.55,5.55,0,0,0-.62,2.28,1.64,1.64,0,0,0,.33,1.11h.4c1.32,0,2,.8,2,2.47,0,1.86-.67,2.78-2,2.78q-2.5,0-3.39-3.34a8.19,8.19,0,0,1-.22-1.8,9.3,9.3,0,0,1,1.48-5.14A4.79,4.79,0,0,1,259,121a4.66,4.66,0,0,1,3.77,2.12,7.51,7.51,0,0,1,1.64,4.67v.7l1-.79a3.28,3.28,0,0,0,.89-2.29,4.16,4.16,0,0,0-2.13-3.69l-5.35-2.42q-6.58-3-6.1-7.54c.4-1.76,1.16-2.65,2.28-2.65s1.84.67,2.09,2A2.44,2.44,0,0,1,256.42,113.38Z"/><path class="cls-1" d="M285.31,131.3a6.31,6.31,0,0,1-4.8,2q-4.33-.15-7.72-6.89a33.21,33.21,0,0,1-3.35-11.81l2.41,1.19A19.51,19.51,0,0,0,275.93,126a5.41,5.41,0,0,0,4.16,2.34,5.61,5.61,0,0,0,5.39-5.8c-.13-2.49-.56-4.14-1.31-5a4.76,4.76,0,0,0-1.74-1.12,4.58,4.58,0,0,1,.31,1.64,4.41,4.41,0,0,1-.41,1.85,3.46,3.46,0,0,1-3.21,2.29,3.23,3.23,0,0,1-2.77-1.64,6.21,6.21,0,0,1-1-3.5,5.8,5.8,0,0,1,.69-2.67,4.54,4.54,0,0,1,1.76-1.9,6.4,6.4,0,0,1,2.42-.64,5.75,5.75,0,0,1,3.94,1.56c2.62,2.1,3.95,5.25,3.95,9.47C288.11,126.6,287.17,129.39,285.31,131.3Z"/><path class="cls-1" d="M304.06,134.92c-1.36-.36-2-1.62-2-3.82v-7.35h-5.21a4.85,4.85,0,0,1-3.35-2,6.27,6.27,0,0,1-1.51-4,7.38,7.38,0,0,1,2-4.91,5.77,5.77,0,0,1,4.26-2.38q2.43,0,4.72,2.77a7.65,7.65,0,0,1,2,5.64v11.06c1.43.13,2,1.16,1.8,3.14C306.56,134.48,305.66,135.11,304.06,134.92Zm-2.79-18.47c-.6-1.59-1.22-2.54-1.83-2.87-.66-.14-1.48.27-2.48,1.26a5,5,0,0,0-1.69,2.6,8.2,8.2,0,0,0-.15,1.28c0,.51.14.82.41,1a3.75,3.75,0,0,0,1,.08H302v-.13A10,10,0,0,0,301.27,116.45Z"/><path class="cls-1" d="M323.07,131.3a6.31,6.31,0,0,1-4.82,2q-4.31-.15-7.71-6.89a33.83,33.83,0,0,1-3.35-11.81l2.42,1.19A19.35,19.35,0,0,0,313.7,126a5.38,5.38,0,0,0,4.15,2.34,5.59,5.59,0,0,0,5.38-5.8c-.12-2.49-.55-4.14-1.3-5a4.64,4.64,0,0,0-1.75-1.12,4.37,4.37,0,0,1,.31,1.64,4.25,4.25,0,0,1-.4,1.85,3.45,3.45,0,0,1-3.22,2.29,3.23,3.23,0,0,1-2.76-1.64,6.21,6.21,0,0,1-1-3.5,5.69,5.69,0,0,1,.7-2.67,4.35,4.35,0,0,1,1.75-1.9,6.24,6.24,0,0,1,2.42-.64,5.79,5.79,0,0,1,3.95,1.56q3.93,3.15,3.94,9.47C325.87,126.6,324.94,129.39,323.07,131.3Z"/><path class="cls-2" d="M6.9,77.09V36.34a25.12,25.12,0,0,1,0-4.16c-.13.76-.07.32.11-.23a3.08,3.08,0,0,1,.58-1.16,7.38,7.38,0,0,1,4.12-3.11c2.75-.89,5.75-.64,8.58-.64H41.41c-.9-1.13-1.78-2.26-2.69-3.39V28c0,4,5.93,4.58,5.93.57V24.26c0-1.58-1-3.4-2.69-3.4H22.55c-7.11,0-15.26-.53-19.84,6.38C.31,30.85,1,35,1,39.17V76.51c0,4,5.93,4.57,5.93.58Z"/><path class="cls-2" d="M10.49,40.36H45.81c3.81,0,4.39-6.19.57-6.19H11c-3.79,0-4.37,6.19-.55,6.19Z"/><path class="cls-2" d="M28.4,39.36v6.75c0,2-.58,5.38.27,7.3C29.42,55,31.48,56,33,56.51c3.83,1.37,8.18.81,12-.15-1.16-1.13-2.32-2.23-3.47-3.34V73.87L44,71.12C37.65,72.28,29.78,72.25,23.86,69c-3.64-2-6.42-5.93-6.42-9.74V46.34c0-4-5.91-4.59-5.91-.58V59.28c0,5.85,3.47,11.21,8.1,14.28,7.18,4.75,17.23,5.15,25.42,3.66a3.05,3.05,0,0,0,2.45-2.77V53.6c0-1.89-1.46-3.83-3.48-3.34-2.73.68-5.78,1.32-8.57.57a5.33,5.33,0,0,1-1.69-.69c-.76-.54-.06,0-.14-.09.23.78.47,1.53.68,2.31V39.94c0-3.95-5.9-4.56-5.9-.58Z"/><path class="cls-2" d="M52.82,40.36h49c3.79,0,4.38-6.19.55-6.19h-49c-3.79,0-4.38,6.19-.56,6.19Z"/><path class="cls-2" d="M117.47,40.36h36.67c3.8,0,4.38-6.19.57-6.19H118c-3.79,0-4.37,6.19-.56,6.19Z"/><path class="cls-2" d="M159.24,40.36h29.92c3.79,0,4.4-6.19.56-6.19H159.8c-3.79,0-4.37,6.19-.56,6.19Z"/><path class="cls-2" d="M69.2,39.92V56.76c0,7.71,12.87,6.17,17.18,5.12-1.16-1.13-2.31-2.23-3.48-3.36v14.8c.81-.91,1.64-1.83,2.45-2.77C78.53,71.79,70,71.71,63.81,67.86a11.59,11.59,0,0,1-5.57-10.18V44.12c0-4-5.93-4.58-5.93-.58V58.2A17.77,17.77,0,0,0,60,72.68c7.28,5.15,17.92,5.51,26.36,4a3,3,0,0,0,2.43-2.75V59.12c0-1.89-1.44-3.86-3.46-3.35-2.84.7-5.93,1.29-8.85.57a10.09,10.09,0,0,1-1.17-.4,2.51,2.51,0,0,1-.69-.3c-.34-.2-1.14-1-.22-.08.23.76.46,1.54.68,2.32V40.5c0-4-5.9-4.58-5.9-.58Z"/><path class="cls-2" d="M71.93,50.85H96.74c-.81-1.13-1.6-2.26-2.38-3.39V77.11c0,4,5.25,4.56,5.25.59V48.07c0-1.57-.84-3.39-2.38-3.39H72.44c-3.38,0-3.9,6.17-.51,6.17Z"/><path class="cls-2" d="M107.45,35.4V77.11c0,4,5.92,4.56,5.92.59V36c0-4-5.92-4.58-5.92-.59Z"/><path class="cls-2" d="M118.45,29h15.71a8.92,8.92,0,0,1,1.55,0c.2,0,.85.2.09,0a14.9,14.9,0,0,1,1.42.49c3.19,1.24,4.73,4,5,7.42.32,4,6.15,2.87,5.86-1.06-.49-6.23-5.65-13-12.15-13H119c-3.8,0-4.4,6.16-.57,6.16Z"/><path class="cls-2" d="M127.23,53.72h-6.18c.9.86,1.76,1.72,2.64,2.57,0,.83,0,.18,0-.43a16.45,16.45,0,0,1,.21-2.55c.3-2.08,1.21-4.11,3-5.05,1.62-.87,4-.4,5.75-.4h13.16c-.88-.86-1.75-1.72-2.64-2.57a6.32,6.32,0,0,1,.13.82c0,.3.06.6.11.91a5.27,5.27,0,0,0,0,.57c0,.52,0-.66,0,.27a17.4,17.4,0,0,1-1.21,7c-3.27,8.39-13.89,9.4-21.6,9-3.27-.18-4.6,4.87-1.31,6q15.9,5.49,31.74,11c3.63,1.26,5.69-4.55,2.07-5.81q-15.89-5.5-31.73-11c-.45,2-.88,4-1.33,6,10.19.55,22.07-1.27,27.16-11.74a23,23,0,0,0,1.78-14.06,3,3,0,0,0-2.64-2.53h-8.61c-4.58,0-10.25-1.09-14.33,1.48-4.57,2.89-6,8.93-5.66,14.19a3,3,0,0,0,2.64,2.54h6.19c3.81,0,4.37-6.18.55-6.18Z"/><path class="cls-2" d="M174,72.76c-4.59-.21-10.35-2.74-10.35-8.35V49.07l-3.25,2.8c11.11-.48,20.17,8.56,24.34,18.68,1.52,3.67,6.88,1,5.34-2.68-4.83-11.77-16-22.74-29.1-22.19-1.51.08-3.25,1-3.25,2.82v9.11c0,3.28-.38,6.8.33,10,1.59,7.08,8.85,11,15.38,11.29,3.82.18,4.38-6,.56-6.17Z"/><path class="cls-2" d="M190.4,77.71V38.94c0-4-5.9-4.57-5.9-.58V77.12c0,4,5.9,4.57,5.9.59Z"/><path class="cls-3" d="M261.82,24.72l-52.65,27.9A8.49,8.49,0,0,0,210.8,60c2.8,3.17,11.88,5.9,17.12,6.91-8,4-18,9.5-18,9.5V86s32.73-.86,43.8,15.83l8.73-6V24.41ZM251.34,87.14s-14.69-9.54-27.56-7.29l21.67-11.66v-8.6s-15.34,2.51-21.88-3.71c25.09-13.9,27.77-15.1,27.77-15.1Z"/><path class="cls-3" d="M265,24.93l-.26.09v53.1c.09,8.5,4.34,11.4,19.89,16.2s17.93,11.77,17.93,11.77l13-7.67V50.56ZM303.6,93.78s-6.05-5.08-17.29-7.25-9.39-6.64-9.39-13-.17-31.41-.17-31.41L303.6,56.26Z"/><polygon class="cls-1" points="263.66 0.1 197.13 46.22 207.84 47.42 263.55 18.41 263.82 18.41 319.51 47.42 330.23 46.22 264.1 0 263.66 0.1"/><polygon class="cls-3" points="279.63 107.62 286.99 104.31 283.87 95.5 276.53 98.42 279.63 107.62"/></g></g></svg>