<svg xmlns="http://www.w3.org/2000/svg" viewBox="0 0 8.7 9.49"><defs><style>.cls-1{fill:#231f20;fill-rule:evenodd;}</style></defs><title>Asset 6time-icon</title><g id="Layer_2" data-name="Layer 2"><g id="Layer_1-2" data-name="Layer 1"><path class="cls-1" d="M0,4.74A4.56,4.56,0,0,0,4.35,9.49,4.56,4.56,0,0,0,8.7,4.74,4.56,4.56,0,0,0,4.35,0,4.56,4.56,0,0,0,0,4.74m7.71,0A3.53,3.53,0,0,1,4.35,8.41,3.52,3.52,0,0,1,1,4.74,3.52,3.52,0,0,1,4.35,1.08,3.52,3.52,0,0,1,7.71,4.74Z"/><path class="cls-1" d="M4.2,2V4.73a.14.14,0,1,0,.27,0V2A.14.14,0,1,0,4.2,2"/><path class="cls-1" d="M2,5.8c-.07,0-.12.07-.11.09s.06,0,.13,0L4.33,4.79c.07,0,.12-.07.12-.09a.23.23,0,0,0-.14,0Z"/><path class="cls-1" d="M4.4,4.53a.21.21,0,0,0-.2.22A.2.2,0,0,0,4.4,5H6.07a.2.2,0,0,0,.19-.21.2.2,0,0,0-.19-.22Z"/><path class="cls-1" d="M4,4.72a.34.34,0,1,0,.34-.37A.36.36,0,0,0,4,4.72"/></g></g></svg>